<svg width="64" height="64" viewBox="0 0 64 64" fill="none" xmlns="http://www.w3.org/2000/svg">
<g clip-path="url(#clip0_125_305)">
<path d="M32 5.33331C46.7275 5.33331 58.6667 17.2724 58.6667 32C58.6667 46.7274 46.7275 58.6666 32 58.6666C17.2724 58.6666 5.33333 46.7274 5.33333 32C5.33333 17.2724 17.2724 5.33331 32 5.33331ZM32 10.6666C20.2179 10.6666 10.6667 20.2179 10.6667 32C10.6667 43.7821 20.2179 53.3333 32 53.3333C43.7821 53.3333 53.3333 43.7821 53.3333 32C53.3333 20.2179 43.7821 10.6666 32 10.6666Z" fill="#edab00"/>
<path d="M32.6194 19.5455C33.7529 19.5455 34.6598 20.4865 34.618 21.6193L34.1194 35.1193C34.0797 36.1944 33.1966 37.0455 32.1208 37.0455H30.3082C29.2323 37.0455 28.3492 36.1944 28.3095 35.1193L27.811 21.6193C27.7691 20.4865 28.6761 19.5455 29.8096 19.5455H32.6194ZM31.2145 45.3977C30.2533 45.3977 29.4289 45.0622 28.7411 44.391C28.0617 43.7115 27.7261 42.8871 27.7344 41.9176C27.7261 40.973 28.0617 40.1651 28.7411 39.494C29.4289 38.8228 30.2533 38.4872 31.2145 38.4872C32.1259 38.4872 32.9297 38.8228 33.6257 39.494C34.33 40.1651 34.6863 40.973 34.6946 41.9176C34.6863 42.5639 34.5165 43.1522 34.185 43.6825C33.8619 44.2046 33.4393 44.623 32.9173 44.9379C32.3952 45.2445 31.8277 45.3977 31.2145 45.3977Z" fill="#edab00"/>
</g>
<defs>
<clipPath id="clip0_125_305">
<rect width="64" height="64" fill="white"/>
</clipPath>
</defs>
</svg>
