<svg width="40" height="44" viewBox="0 0 40 44" fill="none" xmlns="http://www.w3.org/2000/svg">
<path d="M36.7517 16.2336C36.9718 16.7477 37.4154 17.2174 37.9747 17.2174V17.2174C38.5339 17.2174 38.9873 17.6708 38.9873 18.23L38.9873 25.2917C38.9873 25.851 38.5339 26.3043 37.9746 26.3043V26.3043C37.4153 26.3043 36.9718 26.774 36.7516 27.2881C36.4495 27.9935 35.7745 28.6957 34.4303 28.6957C32.6368 28.6957 33.3581 21.4444 34.1327 16.5741C34.2942 15.5587 35.2906 14.7032 36.0914 15.3479C36.4048 15.6002 36.6159 15.9166 36.7517 16.2336Z" fill="url(#paint0_linear_129_281)"/>
<path fill-rule="evenodd" clip-rule="evenodd" d="M32.9371 28.7672C33.198 29.1945 33.6798 29.6522 34.4304 29.6522C35.7731 29.6522 36.71 29.1023 37.2775 28.3578C37.3408 28.2748 37.3989 28.1903 37.4521 28.1048C37.7429 27.6378 38.2071 27.2609 38.7572 27.2609V27.2609C39.4436 27.2609 40 26.7044 40 26.018L40 17.5037C40 16.8173 39.4436 16.2609 38.7572 16.2609V16.2609C38.2071 16.2609 37.7429 15.884 37.4521 15.417C37.3989 15.3315 37.3408 15.2469 37.2775 15.1639C36.71 14.4194 35.7731 13.8696 34.4304 13.8696L34.3845 13.8696C33.9171 13.8696 33.5164 14.2037 33.4325 14.6636V14.6636C33.0068 16.9955 32.4934 20.505 32.343 23.4484C32.2683 24.9098 32.2794 26.2909 32.4576 27.3314C32.5452 27.8427 32.6862 28.3564 32.9371 28.7672ZM36.962 18.1739C37.5213 18.1739 37.9747 18.6273 37.9747 19.1866L37.9747 24.3352C37.9747 24.8944 37.5213 25.3478 36.962 25.3478L36.9059 25.3478C36.3776 25.3478 35.9494 25.7761 35.9494 26.3043V26.3043C35.9494 26.5498 35.8631 26.9394 35.6339 27.24C35.5603 27.3366 35.4665 27.4325 35.3403 27.5141C34.9718 27.7523 34.531 27.4584 34.457 27.0259V27.0259C34.3135 26.1882 34.2929 24.9689 34.3659 23.5407C34.4825 21.26 34.8283 18.598 35.1767 16.4512C35.216 16.2092 35.4853 16.0867 35.6339 16.2817V16.2817C35.8631 16.5824 35.9494 16.9719 35.9494 17.2174V17.2174C35.9494 17.7457 36.3776 18.1739 36.9059 18.1739L36.962 18.1739Z" fill="url(#paint1_linear_129_281)"/>
<path fill-rule="evenodd" clip-rule="evenodd" d="M23.8053 11.0772C21.7698 8.55031 19.5435 7.65217 17.7215 7.65217C15.8995 7.65217 13.6732 8.55031 11.6377 11.0772C9.59745 13.6101 8.10125 17.4464 8.10125 22C8.10125 26.5536 9.59745 30.3899 11.6377 32.9228C13.6732 35.4497 15.8995 36.3478 17.7215 36.3478C19.5435 36.3478 21.7698 35.4497 23.8053 32.9228C25.8455 30.3899 27.3417 26.5536 27.3417 22C27.3417 17.4464 25.8455 13.6101 23.8053 11.0772ZM35.443 22C35.443 9.84973 27.5088 -1.20245e-06 17.7215 -7.74631e-07C7.93417 -3.46814e-07 -1.49276e-06 9.84974 -9.61651e-07 22C-4.30546e-07 34.1503 7.93418 44 17.7215 44C27.5088 44 35.443 34.1503 35.443 22Z" fill="url(#paint2_linear_129_281)"/>
<path fill-rule="evenodd" clip-rule="evenodd" d="M16.2025 31.5652C14.5247 31.5652 13.1645 30.2805 13.1645 28.6957L13.1645 14.3478C13.1645 12.763 14.5247 11.4783 16.2025 11.4783L20.2531 11.4783C21.9309 11.4783 23.2911 12.763 23.2911 14.3478L23.2911 28.6957C23.2911 30.2805 21.9309 31.5652 20.2531 31.5652L16.2025 31.5652ZM16.2025 21.0435C15.6432 21.0435 15.1898 20.6152 15.1898 20.087C15.1898 19.5587 15.6432 19.1304 16.2025 19.1304L21.2658 19.1304C21.8251 19.1304 22.2784 19.5587 22.2784 20.087C22.2784 20.6152 21.8251 21.0435 21.2658 21.0435L16.2025 21.0435ZM15.1898 17.2174C15.1898 17.7457 15.6432 18.1739 16.2025 18.1739L21.2658 18.1739C21.8251 18.1739 22.2784 17.7457 22.2784 17.2174C22.2784 16.6891 21.8251 16.2609 21.2658 16.2609L16.2025 16.2609C15.6432 16.2609 15.1898 16.6891 15.1898 17.2174ZM16.2025 15.3043C15.6432 15.3043 15.1898 14.8761 15.1898 14.3478C15.1898 13.8196 15.6432 13.3913 16.2025 13.3913L21.2658 13.3913C21.8251 13.3913 22.2784 13.8196 22.2784 14.3478C22.2784 14.8761 21.8251 15.3043 21.2658 15.3043L16.2025 15.3043ZM15.1898 22.9565C15.1898 23.4848 15.6432 23.913 16.2025 23.913L21.2658 23.913C21.8251 23.913 22.2784 23.4848 22.2784 22.9565C22.2784 22.4282 21.8251 22 21.2658 22L16.2025 22C15.6432 22 15.1898 22.4282 15.1898 22.9565ZM16.2025 29.6522C15.6432 29.6522 15.1898 29.2239 15.1898 28.6957C15.1898 28.1674 15.6432 27.7391 16.2025 27.7391L21.2658 27.7391C21.8251 27.7391 22.2784 28.1674 22.2784 28.6957C22.2784 29.2239 21.8251 29.6522 21.2658 29.6522L16.2025 29.6522ZM15.1898 25.8261C15.1898 26.3544 15.6432 26.7826 16.2025 26.7826L21.2658 26.7826C21.8251 26.7826 22.2784 26.3544 22.2784 25.8261C22.2784 25.2978 21.8251 24.8696 21.2658 24.8696L16.2025 24.8696C15.6432 24.8696 15.1898 25.2978 15.1898 25.8261Z" fill="url(#paint3_linear_129_281)"/>
<path d="M25.8227 27.7391C24.4245 27.7391 23.2911 26.6057 23.2911 25.2075L23.2911 18.7925C23.2911 17.3943 24.4245 16.2609 25.8227 16.2609V16.2609C27.2209 16.2609 28.3544 17.3943 28.3544 18.7925L28.3544 25.2075C28.3544 26.6057 27.2209 27.7391 25.8227 27.7391V27.7391Z" fill="url(#paint4_linear_129_281)"/>
<defs>
<linearGradient id="paint0_linear_129_281" x1="-9.61651e-07" y1="22" x2="69.7214" y2="-1.37902" gradientUnits="userSpaceOnUse">
<stop stop-color="#FFA842"/>
<stop offset="0.99" stop-color="#FFA337"/>
</linearGradient>
<linearGradient id="paint1_linear_129_281" x1="-9.61651e-07" y1="22" x2="69.7214" y2="-1.37902" gradientUnits="userSpaceOnUse">
<stop stop-color="#FFA842"/>
<stop offset="0.99" stop-color="#FFA337"/>
</linearGradient>
<linearGradient id="paint2_linear_129_281" x1="-9.61651e-07" y1="22" x2="69.7214" y2="-1.37902" gradientUnits="userSpaceOnUse">
<stop stop-color="#FFA842"/>
<stop offset="0.99" stop-color="#FFA337"/>
</linearGradient>
<linearGradient id="paint3_linear_129_281" x1="-9.61651e-07" y1="22" x2="69.7214" y2="-1.37902" gradientUnits="userSpaceOnUse">
<stop stop-color="#FFA842"/>
<stop offset="0.99" stop-color="#FFA337"/>
</linearGradient>
<linearGradient id="paint4_linear_129_281" x1="-9.61651e-07" y1="22" x2="69.7214" y2="-1.37902" gradientUnits="userSpaceOnUse">
<stop stop-color="#FFA842"/>
<stop offset="0.99" stop-color="#FFA337"/>
</linearGradient>
</defs>
</svg>
