<svg width="59" height="59" viewBox="0 0 59 59" fill="none" xmlns="http://www.w3.org/2000/svg">
<path d="M57.1562 47.9375C57.1562 53.0078 53.0078 57.1562 47.9375 57.1562H11.0625C5.99219 57.1562 1.84375 53.0078 1.84375 47.9375V11.0625C1.84375 5.99219 5.99219 1.84375 11.0625 1.84375H47.9375C53.0078 1.84375 57.1562 5.99219 57.1562 11.0625V47.9375Z" fill="#A181FF"/>
<path d="M34.7852 33.1221V14.7186C34.7852 11.7372 32.4014 9.32031 29.4199 9.32031C26.4385 9.32031 24.0547 11.7372 24.0547 14.7187V33.1223C21.8125 34.7766 20.3545 37.4314 20.3545 40.4248C20.3545 45.4402 24.4116 49.5059 29.4269 49.5059C34.4422 49.5059 38.488 45.44 38.488 40.4247C38.488 37.4313 37.0273 34.7764 34.7852 33.1221Z" fill="#C4F0F2"/>
<path d="M33.2637 35.629V22.7734H25.5762V35.629C24.1348 36.7572 23.2704 38.4857 23.2704 40.4247C23.2704 43.8238 26.0224 46.5794 29.4216 46.5794C32.8208 46.5794 35.5694 43.8238 35.5694 40.4247C35.5694 38.4857 34.7051 36.7572 33.2637 35.629Z" fill="#FF473E"/>
<path d="M29.4285 23.6806C31.5581 23.6806 33.2844 23.2824 33.2844 22.7912C33.2844 22.3 31.5581 21.9019 29.4285 21.9019C27.2989 21.9019 25.5726 22.3 25.5726 22.7912C25.5726 23.2824 27.2989 23.6806 29.4285 23.6806Z" fill="#FF6E83"/>
<path d="M28.1798 16.2871C28.1798 16.5 28.0072 16.6875 27.7943 16.6875H24.0547V15.8867H27.7943C28.0073 15.8867 28.1798 16.0742 28.1798 16.2871ZM27.7943 20.6914H24.0547V21.4922H27.7943C28.0073 21.4922 28.1799 21.3047 28.1799 21.0918C28.1798 20.8789 28.0073 20.6914 27.7943 20.6914ZM27.7943 25.4961H24.0547V26.2969H27.7943C28.0073 26.2969 28.1799 26.1094 28.1799 25.8965C28.1798 25.6836 28.0073 25.4961 27.7943 25.4961ZM27.8184 30.3405V30.3008H24.0547V31.1016H27.8184V31.1116C27.9785 31.1116 28.2039 30.9389 28.2039 30.726C28.2039 30.5131 27.9785 30.3405 27.8184 30.3405Z" fill="#597B91"/>
</svg>
