<?xml version="1.0" encoding="utf-8"?>
<!-- Generator: Adobe Illustrator 16.0.0, SVG Export Plug-In . SVG Version: 6.00 Build 0)  -->
<!DOCTYPE svg PUBLIC "-//W3C//DTD SVG 1.1//EN" "http://www.w3.org/Graphics/SVG/1.1/DTD/svg11.dtd">
<svg version="1.1" id="Layer_1" xmlns="http://www.w3.org/2000/svg" xmlns:xlink="http://www.w3.org/1999/xlink" x="0px" y="0px"
fill="#364c70"
	 width="128px" height="128px" viewBox="0 0 128 128" enable-background="new 0 0 128 128" xml:space="preserve">
<g id="Stats_2">
	<g>
		<path d="M104,24c-6.625,0-12,5.375-12,12c0,2.898,1.07,5.516,2.781,7.594L82.391,64.242C81.617,64.086,80.82,64,80,64
			c-3.23,0-6.152,1.297-8.313,3.375l-11.836-5.922C59.914,60.969,60,60.5,60,60c0-6.625-5.375-12-12-12s-12,5.375-12,12
			c0,2.461,0.746,4.742,2.016,6.648L27.555,80.594C26.422,80.242,25.246,80,24,80c-6.625,0-12,5.375-12,12s5.375,12,12,12
			s12-5.375,12-12c0-2.461-0.746-4.742-2.016-6.648l10.461-13.945C45.578,71.758,46.754,72,48,72c3.23,0,6.152-1.297,8.313-3.375
			l11.836,5.922C68.086,75.031,68,75.5,68,76c0,6.625,5.375,12,12,12s12-5.375,12-12c0-2.898-1.07-5.516-2.781-7.594l12.391-20.648
			C102.383,47.914,103.18,48,104,48c6.625,0,12-5.375,12-12S110.625,24,104,24z"/>
	</g>
</g>
</svg>
