<svg width="101" height="83" viewBox="0 0 101 83" fill="none" xmlns="http://www.w3.org/2000/svg">
<path fill-rule="evenodd" clip-rule="evenodd" d="M93.4012 21.8644C92.2665 22.2325 91.035 22.348 89.7999 22.1421C87.3982 21.7418 85.0614 20.1408 83.4254 16.9945C81.9675 14.1908 79.1925 12.4175 75.6429 12.6704C72.0645 12.9254 67.5929 15.251 62.8599 20.9111C56.8064 28.1503 50.2088 29.4639 45.8982 28.964C45.6106 29.5794 45.1255 30.1084 44.4763 30.446C42.9083 31.2614 40.9762 30.6512 40.1609 29.0832C39.3455 27.5152 39.9557 25.5831 41.5237 24.7678C43.0917 23.9525 45.0238 24.5626 45.8391 26.1306C46.1149 26.661 46.2276 27.2329 46.1953 27.7893C50.1172 28.1936 56.226 26.9737 61.9393 20.1413C66.788 14.343 71.5333 11.7602 75.5576 11.4735C79.6106 11.1847 82.8237 13.2364 84.49 16.4409C85.9781 19.3027 88.0201 20.6289 89.9972 20.9585C90.9496 21.1172 91.9051 21.048 92.8001 20.7932C92.3151 19.3283 92.9502 17.6866 94.3633 16.9519C95.9313 16.1365 97.8633 16.7467 98.6787 18.3147C99.494 19.8827 98.8839 21.8147 97.3159 22.6301C95.9658 23.3321 94.3459 22.9773 93.4012 21.8644Z" fill="url(#paint0_linear_119_298)"/>
<path fill-rule="evenodd" clip-rule="evenodd" d="M93.4012 60.7321C92.2665 60.3639 91.035 60.2484 89.7999 60.4543C87.3982 60.8546 85.0614 62.4557 83.4254 65.602C81.9675 68.4056 79.1925 70.1789 75.6429 69.926C72.0645 69.6711 67.5929 67.3455 62.8599 61.6853C56.8064 54.4461 50.2088 53.1326 45.8982 53.6324C45.6106 53.0171 45.1255 52.488 44.4763 52.1504C42.9083 51.3351 40.9762 51.9452 40.1609 53.5132C39.3455 55.0812 39.9557 57.0133 41.5237 57.8286C43.0917 58.644 45.0238 58.0338 45.8391 56.4658C46.1149 55.9355 46.2276 55.3635 46.1953 54.8071C50.1172 54.4028 56.226 55.6228 61.9393 62.4551C66.788 68.2535 71.5333 70.8363 75.5576 71.123C79.6106 71.4117 82.8237 69.3601 84.49 66.1556C85.9781 63.2937 88.0201 61.9675 89.9972 61.638C90.9496 61.4792 91.9051 61.5484 92.8001 61.8032C92.3151 63.2681 92.9502 64.9098 94.3633 65.6446C95.9313 66.4599 97.8633 65.8498 98.6787 64.2818C99.494 62.7138 98.8839 60.7817 97.3159 59.9664C95.9658 59.2644 94.3459 59.6191 93.4012 60.7321Z" fill="url(#paint1_linear_119_298)"/>
<path d="M36.7517 34.5491C36.9718 35.0632 37.4154 35.5328 37.9747 35.5328V35.5328C38.5339 35.5328 38.9873 35.9862 38.9873 36.5455L38.9873 43.6071C38.9873 44.1664 38.5339 44.6198 37.9746 44.6198V44.6198C37.4153 44.6198 36.9718 45.0894 36.7516 45.6035C36.4495 46.3089 35.7745 47.0111 34.4303 47.0111C32.6368 47.0111 33.3581 39.7598 34.1327 34.8895C34.2942 33.8741 35.2906 33.0186 36.0914 33.6633C36.4048 33.9156 36.6159 34.232 36.7517 34.5491Z" fill="url(#paint2_linear_119_298)"/>
<path fill-rule="evenodd" clip-rule="evenodd" d="M32.9371 47.0826C33.198 47.5099 33.6798 47.9676 34.4304 47.9676C35.7731 47.9676 36.71 47.4177 37.2775 46.6732C37.3408 46.5903 37.3989 46.5057 37.4521 46.4202C37.7429 45.9532 38.2071 45.5763 38.7572 45.5763V45.5763C39.4436 45.5763 40 45.0199 40 44.3335L40 35.8191C40 35.1327 39.4436 34.5763 38.7572 34.5763V34.5763C38.2071 34.5763 37.7429 34.1994 37.4521 33.7324C37.3989 33.6469 37.3408 33.5623 37.2775 33.4794C36.71 32.7349 35.7731 32.185 34.4304 32.185L34.3845 32.185C33.9171 32.185 33.5164 32.5191 33.4325 32.979V32.979C33.0068 35.3109 32.4934 38.8205 32.343 41.7639C32.2683 43.2252 32.2794 44.6064 32.4576 45.6469C32.5452 46.1582 32.6862 46.6718 32.9371 47.0826ZM36.962 36.4893C37.5213 36.4893 37.9747 36.9427 37.9747 37.502L37.9747 42.6506C37.9747 43.2099 37.5213 43.6633 36.962 43.6633L36.9059 43.6633C36.3776 43.6633 35.9494 44.0915 35.9494 44.6198V44.6198C35.9494 44.8653 35.8631 45.2548 35.6339 45.5554C35.5603 45.6521 35.4665 45.748 35.3403 45.8295C34.9718 46.0678 34.531 45.7738 34.457 45.3413V45.3413C34.3135 44.5037 34.2929 43.2843 34.3659 41.8561C34.4825 39.5755 34.8283 36.9134 35.1767 34.7667C35.216 34.5246 35.4853 34.4022 35.6339 34.5972V34.5972C35.8631 34.8978 35.9494 35.2873 35.9494 35.5328V35.5328C35.9494 36.0611 36.3776 36.4893 36.9059 36.4893L36.962 36.4893Z" fill="url(#paint3_linear_119_298)"/>
<path fill-rule="evenodd" clip-rule="evenodd" d="M23.8053 29.3926C21.7698 26.8657 19.5435 25.9676 17.7215 25.9676C15.8995 25.9676 13.6732 26.8657 11.6377 29.3926C9.59745 31.9255 8.10125 35.7619 8.10125 40.3154C8.10125 44.869 9.59745 48.7054 11.6377 51.2382C13.6732 53.7651 15.8995 54.6633 17.7215 54.6633C19.5435 54.6633 21.7698 53.7651 23.8053 51.2382C25.8455 48.7054 27.3417 44.869 27.3417 40.3154C27.3417 35.7619 25.8455 31.9255 23.8053 29.3926ZM35.443 40.3154C35.443 28.1652 27.5088 18.3154 17.7215 18.3154C7.93417 18.3154 -1.49276e-06 28.1652 -9.61651e-07 40.3154C-4.30546e-07 52.4657 7.93418 62.3154 17.7215 62.3154C27.5088 62.3154 35.443 52.4657 35.443 40.3154Z" fill="url(#paint4_linear_119_298)"/>
<path fill-rule="evenodd" clip-rule="evenodd" d="M16.2025 49.8806C14.5247 49.8806 13.1645 48.5959 13.1645 47.0111L13.1645 32.6633C13.1645 31.0784 14.5247 29.7937 16.2025 29.7937L20.2531 29.7937C21.9309 29.7937 23.2911 31.0784 23.2911 32.6633L23.2911 47.0111C23.2911 48.5959 21.9309 49.8806 20.2531 49.8806L16.2025 49.8806ZM16.2025 39.3589C15.6432 39.3589 15.1898 38.9307 15.1898 38.4024C15.1898 37.8741 15.6432 37.4459 16.2025 37.4459L21.2658 37.4459C21.8251 37.4459 22.2784 37.8741 22.2784 38.4024C22.2784 38.9307 21.8251 39.3589 21.2658 39.3589L16.2025 39.3589ZM15.1898 35.5328C15.1898 36.0611 15.6432 36.4893 16.2025 36.4893L21.2658 36.4893C21.8251 36.4893 22.2784 36.0611 22.2784 35.5328C22.2784 35.0045 21.8251 34.5763 21.2658 34.5763L16.2025 34.5763C15.6432 34.5763 15.1898 35.0045 15.1898 35.5328ZM16.2025 33.6198C15.6432 33.6198 15.1898 33.1915 15.1898 32.6633C15.1898 32.135 15.6432 31.7067 16.2025 31.7067L21.2658 31.7067C21.8251 31.7067 22.2784 32.135 22.2784 32.6633C22.2784 33.1915 21.8251 33.6198 21.2658 33.6198L16.2025 33.6198ZM15.1898 41.272C15.1898 41.8002 15.6432 42.2285 16.2025 42.2285L21.2658 42.2285C21.8251 42.2285 22.2784 41.8002 22.2784 41.272C22.2784 40.7437 21.8251 40.3154 21.2658 40.3154L16.2025 40.3154C15.6432 40.3154 15.1898 40.7437 15.1898 41.272ZM16.2025 47.9676C15.6432 47.9676 15.1898 47.5394 15.1898 47.0111C15.1898 46.4828 15.6432 46.0546 16.2025 46.0546L21.2658 46.0546C21.8251 46.0546 22.2784 46.4828 22.2784 47.0111C22.2784 47.5394 21.8251 47.9676 21.2658 47.9676L16.2025 47.9676ZM15.1898 44.1415C15.1898 44.6698 15.6432 45.098 16.2025 45.098L21.2658 45.098C21.8251 45.098 22.2784 44.6698 22.2784 44.1415C22.2784 43.6132 21.8251 43.185 21.2658 43.185L16.2025 43.185C15.6432 43.185 15.1898 43.6132 15.1898 44.1415Z" fill="url(#paint5_linear_119_298)"/>
<path d="M25.8227 46.0546C24.4245 46.0546 23.2911 44.9211 23.2911 43.5229L23.2911 37.1079C23.2911 35.7098 24.4245 34.5763 25.8227 34.5763V34.5763C27.2209 34.5763 28.3544 35.7098 28.3544 37.1079L28.3544 43.5229C28.3544 44.9211 27.2209 46.0546 25.8227 46.0546V46.0546Z" fill="url(#paint6_linear_119_298)"/>
<path d="M91.1529 49.014C90.1342 49.014 89.2481 48.8256 88.4946 48.4488C87.741 48.0581 87.1549 47.5209 86.7363 46.8371C86.3316 46.1394 86.1293 45.33 86.1293 44.409V37.9202C86.1293 36.9992 86.3316 36.1968 86.7363 35.513C87.1549 34.8153 87.741 34.278 88.4946 33.9013C89.2481 33.5105 90.1342 33.3152 91.1529 33.3152C92.1855 33.3152 93.0716 33.5105 93.8112 33.9013C94.5648 34.278 95.1439 34.8153 95.5485 35.513C95.9672 36.1968 96.1765 36.9992 96.1765 37.9202V44.409C96.1765 45.33 95.9672 46.1394 95.5485 46.8371C95.1439 47.5209 94.5648 48.0581 93.8112 48.4488C93.0716 48.8256 92.1855 49.014 91.1529 49.014ZM91.1529 46.2929C91.7808 46.2929 92.2483 46.1324 92.5553 45.8114C92.8763 45.4765 93.0367 45.009 93.0367 44.409V37.9202C93.0367 37.3062 92.8832 36.8387 92.5762 36.5177C92.2692 36.1968 91.7948 36.0363 91.1529 36.0363C90.511 36.0363 90.0365 36.1968 89.7295 36.5177C89.4225 36.8387 89.269 37.3062 89.269 37.9202V44.409C89.269 45.009 89.4225 45.4765 89.7295 45.8114C90.0505 46.1324 90.5249 46.2929 91.1529 46.2929Z" fill="url(#paint7_linear_119_298)"/>
<path d="M73.2017 61.8871V46.1256H73.8505C74.004 45.8744 74.1645 45.5325 74.332 45.0999C74.5134 44.6534 74.6669 44.144 74.7925 43.5719C74.9181 42.9858 74.9809 42.3578 74.9809 41.688L75.1064 33.5247H83.5838V46.1256H84.8397V51.7353H81.9093V48.8048H76.1321V61.8871H73.2017ZM76.9275 46.1256H80.6534V36.2039H77.995L77.9113 41.6671C77.8973 42.6439 77.7787 43.537 77.5555 44.3464C77.3322 45.1418 77.1229 45.7348 76.9275 46.1256Z" fill="url(#paint8_linear_119_298)"/>
<path d="M61.488 48.8048V33.5247H65.0255L66.4279 38.339C66.5814 38.8413 66.6931 39.2809 66.7628 39.6577C66.8466 40.0344 66.8954 40.2996 66.9094 40.4531C66.9233 40.2996 66.9652 40.0344 67.0349 39.6577C67.1187 39.2809 67.2303 38.8413 67.3699 38.339L68.7513 33.5247H72.2888V48.8048H69.4212V44.6185C69.4212 43.851 69.4351 43.0486 69.463 42.2113C69.5049 41.3601 69.5537 40.5159 69.6095 39.6786C69.6654 38.8413 69.7282 38.0599 69.7979 37.3342C69.8677 36.5946 69.9305 35.9527 69.9863 35.4085L68.2281 42.316H65.5697L63.7277 35.4085C63.7975 35.9248 63.8673 36.5458 63.937 37.2714C64.0068 37.9831 64.0696 38.7576 64.1254 39.5949C64.1952 40.4182 64.251 41.2624 64.2929 42.1276C64.3348 42.9928 64.3557 43.8231 64.3557 44.6185V48.8048H61.488Z" fill="url(#paint9_linear_119_298)"/>
<path d="M51.8467 48.8048L53.4166 44.9324L49 33.5247H52.3909L54.4004 39.7414C54.512 40.0763 54.6097 40.46 54.6934 40.8926C54.7911 41.3252 54.8609 41.6811 54.9027 41.9601C54.9307 41.6811 54.9795 41.3252 55.0493 40.8926C55.133 40.4461 55.2237 40.0623 55.3214 39.7414L57.2262 33.5247H60.5125L55.133 48.8048H51.8467Z" fill="url(#paint10_linear_119_298)"/>
<defs>
<linearGradient id="paint0_linear_119_298" x1="73.5465" y1="31.6352" x2="61.8604" y2="-0.265412" gradientUnits="userSpaceOnUse">
<stop offset="0.00999999" stop-color="#FF8D06"/>
<stop offset="1" stop-color="#FED19D"/>
</linearGradient>
<linearGradient id="paint1_linear_119_298" x1="73.5465" y1="50.9612" x2="61.8604" y2="82.8618" gradientUnits="userSpaceOnUse">
<stop offset="0.00999999" stop-color="#FF8D06"/>
<stop offset="1" stop-color="#FED19D"/>
</linearGradient>
<linearGradient id="paint2_linear_119_298" x1="-9.61651e-07" y1="40.3154" x2="69.7214" y2="16.9364" gradientUnits="userSpaceOnUse">
<stop stop-color="#FFA842"/>
<stop offset="0.99" stop-color="#FFA337"/>
</linearGradient>
<linearGradient id="paint3_linear_119_298" x1="-9.61651e-07" y1="40.3154" x2="69.7214" y2="16.9364" gradientUnits="userSpaceOnUse">
<stop stop-color="#FFA842"/>
<stop offset="0.99" stop-color="#FFA337"/>
</linearGradient>
<linearGradient id="paint4_linear_119_298" x1="-9.61651e-07" y1="40.3154" x2="69.7214" y2="16.9364" gradientUnits="userSpaceOnUse">
<stop stop-color="#FFA842"/>
<stop offset="0.99" stop-color="#FFA337"/>
</linearGradient>
<linearGradient id="paint5_linear_119_298" x1="-9.61651e-07" y1="40.3154" x2="69.7214" y2="16.9364" gradientUnits="userSpaceOnUse">
<stop stop-color="#FFA842"/>
<stop offset="0.99" stop-color="#FFA337"/>
</linearGradient>
<linearGradient id="paint6_linear_119_298" x1="-9.61651e-07" y1="40.3154" x2="69.7214" y2="16.9364" gradientUnits="userSpaceOnUse">
<stop stop-color="#FFA842"/>
<stop offset="0.99" stop-color="#FFA337"/>
</linearGradient>
<linearGradient id="paint7_linear_119_298" x1="91.1529" y1="33.3152" x2="104.322" y2="56.1655" gradientUnits="userSpaceOnUse">
<stop offset="0.00999999" stop-color="#FFA53C"/>
<stop offset="1" stop-color="#FED19D"/>
</linearGradient>
<linearGradient id="paint8_linear_119_298" x1="79.0207" y1="33.5247" x2="106.363" y2="63.9418" gradientUnits="userSpaceOnUse">
<stop offset="0.00999999" stop-color="#FFA53C"/>
<stop offset="1" stop-color="#FED19D"/>
</linearGradient>
<linearGradient id="paint9_linear_119_298" x1="66.8884" y1="33.5247" x2="79.0404" y2="56.812" gradientUnits="userSpaceOnUse">
<stop offset="0.00999999" stop-color="#FFA53C"/>
<stop offset="1" stop-color="#FED19D"/>
</linearGradient>
<linearGradient id="paint10_linear_119_298" x1="54.7562" y1="33.5247" x2="66.457" y2="57.4249" gradientUnits="userSpaceOnUse">
<stop offset="0.00999999" stop-color="#FFA53C"/>
<stop offset="1" stop-color="#FED19D"/>
</linearGradient>
</defs>
</svg>
