<?xml version="1.0" encoding="utf-8"?>
<!-- Uploaded to: SVG Repo, www.svgrepo.com, Generator: SVG Repo Mixer Tools -->
<!DOCTYPE svg PUBLIC "-//W3C//DTD SVG 1.1//EN" "http://www.w3.org/Graphics/SVG/1.1/DTD/svg11.dtd">
<svg version="1.1" id="Layer_1" xmlns="http://www.w3.org/2000/svg" xmlns:xlink="http://www.w3.org/1999/xlink" 
	 viewBox="0 0 316.9 343.2" enable-background="new 0 0 316.9 343.2" xml:space="preserve">
<g>
	<g>
		<ellipse fill="none" stroke="#31A6E0" stroke-width="10.4201" stroke-miterlimit="10" cx="156.6" cy="106" rx="112.4" ry="55.5"/>
		
			<ellipse transform="matrix(0.5096 0.8604 -0.8604 0.5096 167.9851 -82.7532)" fill="none" stroke="#31A6E0" stroke-width="10.4201" stroke-miterlimit="10" cx="156.6" cy="106" rx="112.4" ry="55.5"/>
		
			<ellipse transform="matrix(-0.5096 0.8604 -0.8604 -0.5096 327.5663 25.2575)" fill="none" stroke="#31A6E0" stroke-width="10.4201" stroke-miterlimit="10" cx="156.6" cy="106" rx="112.4" ry="55.5"/>
		<g>
			<path fill="#103342" d="M170.9,122.9h-10.7l0,7.4l-4.5,0l0-7.3c-1.2,0-2.3,0-3.6,0l0,7.4l-4.5,0l0-7.4c-1,0-2.1,0-3.2,0l-5.8,0
				l0.9-5.3c0,0,3.3,0.1,3.3,0c1.3,0,1.6-0.9,1.7-1.5l0-20.2c-0.2-0.9-0.8-2-2.6-2c0.1-0.1-3.3,0-3.3,0l0-4.8l6.2,0l0,0
				c0.9,0,1.9,0,2.9,0l0-7.4l4.5,0l0,7.2c1.2,0,2.4,0,3.6,0l0-7.2l4.5,0l0,7.4h10.7c0,0,0,5,0,4.8h-18.6l0,9.3h15.1v4.5h-15.1l0,9.7
				l17.7,0L170.9,122.9"/>
		</g>
	</g>
	<g>
		<path fill="#103342" d="M36.2,313.8H10c0.2,2.4,1.3,4.4,3.3,5.9c2.1,1.5,4.4,2.2,7,2.2c4.2,0,7.4-1.3,9.6-4l4,4.4
			c-3.6,3.7-8.3,5.6-14.1,5.6c-4.7,0-8.7-1.6-12-4.7c-3.3-3.1-4.9-7.3-4.9-12.6c0-5.3,1.7-9.4,5-12.5c3.4-3.1,7.3-4.7,11.9-4.7
			c4.5,0,8.4,1.4,11.6,4.1c3.2,2.7,4.8,6.5,4.8,11.3V313.8z M10,308.3h19.2c0-2.8-0.9-5-2.6-6.5c-1.8-1.5-3.9-2.3-6.5-2.3
			s-4.9,0.8-6.9,2.4C11,303.4,10,305.6,10,308.3z"/>
		<path fill="#103342" d="M54.8,327.4h-7v-46.7h7V327.4z"/>
		<path fill="#103342" d="M99.8,313.8H73.6c0.2,2.4,1.3,4.4,3.3,5.9c2.1,1.5,4.4,2.2,7,2.2c4.2,0,7.4-1.3,9.6-4l4,4.4
			c-3.6,3.7-8.3,5.6-14.1,5.6c-4.7,0-8.7-1.6-12-4.7c-3.3-3.1-4.9-7.3-4.9-12.6c0-5.3,1.7-9.4,5-12.5c3.4-3.1,7.3-4.7,11.9-4.7
			c4.5,0,8.4,1.4,11.6,4.1c3.2,2.7,4.8,6.5,4.8,11.3V313.8z M73.6,308.3h19.2c0-2.8-0.9-5-2.6-6.5c-1.8-1.5-3.9-2.3-6.5-2.3
			s-4.9,0.8-6.9,2.4C74.7,303.4,73.6,305.6,73.6,308.3z"/>
		<path fill="#103342" d="M126.2,327.9c-4.7,0-8.7-1.6-12-4.7c-3.4-3.2-5-7.3-5-12.4c0-5.1,1.7-9.3,5.2-12.5
			c3.5-3.2,7.8-4.8,12.8-4.8c5,0,9.3,1.7,12.8,5.2l-4.1,5.1c-2.9-2.5-5.8-3.8-8.7-3.8c-2.9,0-5.5,1-7.6,2.9
			c-2.2,1.9-3.2,4.5-3.2,7.5s1.1,5.7,3.2,7.8s4.8,3.2,7.9,3.2c3.1,0,6.1-1.4,8.8-4.3l4.1,4.5C136.2,325.9,131.5,327.9,126.2,327.9z"
			/>
		<path fill="#103342" d="M160,299.6v17c0,1.6,0.4,2.9,1.3,3.8c0.8,0.9,2,1.4,3.5,1.4s3-0.7,4.3-2.2l2.9,5c-2.5,2.2-5.2,3.3-8.2,3.3
			c-3,0-5.6-1-7.7-3.1c-2.1-2.1-3.2-4.9-3.2-8.4v-16.8h-4.2V294h4.2v-10.5h7V294h8.8v5.7H160z"/>
		<path fill="#103342" d="M198.9,300.6c-3.5,0-6.1,1.1-7.9,3.4c-1.8,2.3-2.6,5.3-2.6,9.1v14.3h-7V294h7v6.7c1.1-2.1,2.7-3.8,4.6-5.2
			c1.9-1.3,4-2,6.2-2.1l0.1,7.1C199.2,300.6,199.1,300.6,198.9,300.6z"/>
		<path fill="#103342" d="M233.5,312.1V294h7v33.4h-7v-6.1c-1.1,2.1-2.7,3.7-4.7,4.8c-2,1.2-4.1,1.8-6.4,1.8c-3.8,0-6.8-1.2-9.1-3.5
			c-2.3-2.3-3.5-5.6-3.5-10V294h7v18.4c0,6.2,2.6,9.2,7.7,9.2c2.4,0,4.5-0.8,6.4-2.4C232.6,317.6,233.5,315.2,233.5,312.1z"/>
		<path fill="#103342" d="M261.6,309.3v18.1h-7V294h7v6.1c1-2.1,2.5-3.7,4.6-4.8c2-1.2,4.2-1.8,6.6-1.8c5.3,0,8.9,2.2,10.8,6.5
			c3.3-4.4,7.4-6.5,12.4-6.5c3.8,0,6.8,1.2,9.1,3.5c2.3,2.3,3.5,5.6,3.5,10v20.5h-7v-18.4c0-6.2-2.6-9.2-7.7-9.2
			c-2.4,0-4.5,0.8-6.3,2.3c-1.8,1.5-2.7,3.8-2.8,6.7v18.6h-7v-18.4c0-3.2-0.6-5.5-1.7-7c-1.1-1.5-2.9-2.2-5.3-2.2
			c-2.4,0-4.5,0.8-6.4,2.4C262.5,303.9,261.6,306.2,261.6,309.3z"/>
	</g>
</g>
</svg>