<svg width="64" height="64" viewBox="0 0 64 64" fill="none" xmlns="http://www.w3.org/2000/svg">
<g clip-path="url(#clip0_125_281)">
<path d="M32 5.33331C46.7275 5.33331 58.6667 17.2724 58.6667 32C58.6667 46.7274 46.7275 58.6666 32 58.6666C17.2724 58.6666 5.33333 46.7274 5.33333 32C5.33333 17.2724 17.2724 5.33331 32 5.33331ZM32 10.6666C20.2179 10.6666 10.6667 20.2179 10.6667 32C10.6667 43.7821 20.2179 53.3333 32 53.3333C43.7821 53.3333 53.3333 43.7821 53.3333 32C53.3333 20.2179 43.7821 10.6666 32 10.6666ZM31.9733 26.6666C33.4608 26.6666 34.6667 27.8725 34.6667 29.36V43.0234C35.4637 43.4845 36 44.3464 36 45.3333C36 46.8061 34.8061 48 33.3333 48H32.0267C30.5389 48 29.3333 46.7941 29.3333 45.3066V32C27.8605 32 26.6667 30.8061 26.6667 29.3333C26.6667 27.8605 27.8605 26.6666 29.3333 26.6666H31.9733ZM32 18.6666C33.4728 18.6666 34.6667 19.8606 34.6667 21.3333C34.6667 22.8061 33.4728 24 32 24C30.5272 24 29.3333 22.8061 29.3333 21.3333C29.3333 19.8606 30.5272 18.6666 32 18.6666Z" fill="#09244B"/>
</g>
<defs>
<clipPath id="clip0_125_281">
<rect width="64" height="64" fill="white"/>
</clipPath>
</defs>
</svg>
