<svg width="64" height="64" viewBox="0 0 64 64" fill="none" xmlns="http://www.w3.org/2000/svg">
<g clip-path="url(#clip0_125_297)">
<path d="M32 5.33331C46.7275 5.33331 58.6667 17.2724 58.6667 32C58.6667 46.7274 46.7275 58.6666 32 58.6666C17.2724 58.6666 5.33334 46.7274 5.33334 32C5.33334 17.2724 17.2724 5.33331 32 5.33331ZM32 10.6666C20.2179 10.6666 10.6667 20.2179 10.6667 32C10.6667 43.7821 20.2179 53.3333 32 53.3333C43.7821 53.3333 53.3333 43.7821 53.3333 32C53.3333 20.2179 43.7821 10.6666 32 10.6666Z" fill="#31CF2E"/>
<path fill-rule="evenodd" clip-rule="evenodd" d="M45.0645 21L27.8459 37.4075L18.9334 28.9149L16 31.7102L27.8459 43L48 23.7972L45.0645 21Z" fill="#31CF2E"/>
</g>
<defs>
<clipPath id="clip0_125_297">
<rect width="64" height="64" fill="white"/>
</clipPath>
</defs>
</svg>
